<svg xmlns="http://www.w3.org/2000/svg" viewBox="0 0 530 530" width="530" height="530" role="img" aria-label="Iron Rods">
  <defs>
    <linearGradient id="bg" x1="0" y1="0" x2="0" y2="1">
      <stop offset="0" stop-color="#0d2137"/>
      <stop offset="1" stop-color="#000917"/>
    </linearGradient>
    <linearGradient id="sheen" x1="0" y1="0" x2="1" y2="1">
      <stop offset="0" stop-color="#ffffff" stop-opacity="0.35"/>
      <stop offset="0.5" stop-color="#ffffff" stop-opacity="0"/>
    </linearGradient>
  </defs>
  <rect width="530" height="530" fill="url(#bg)"/>
  <circle cx="265" cy="250" r="150" fill="#ffffff" opacity="0.03"/>
  
    <g>
    <rect x="150" y="150" width="14" height="330" rx="7" fill="#aeb6c2"/><rect x="150" y="150" width="6" height="330" rx="3" fill="#e6eaf0"/><rect x="180" y="150" width="14" height="330" rx="7" fill="#aeb6c2"/><rect x="180" y="150" width="6" height="330" rx="3" fill="#e6eaf0"/><rect x="210" y="150" width="14" height="330" rx="7" fill="#aeb6c2"/><rect x="210" y="150" width="6" height="330" rx="3" fill="#e6eaf0"/><rect x="240" y="150" width="14" height="330" rx="7" fill="#aeb6c2"/><rect x="240" y="150" width="6" height="330" rx="3" fill="#e6eaf0"/><rect x="270" y="150" width="14" height="330" rx="7" fill="#aeb6c2"/><rect x="270" y="150" width="6" height="330" rx="3" fill="#e6eaf0"/><rect x="300" y="150" width="14" height="330" rx="7" fill="#aeb6c2"/><rect x="300" y="150" width="6" height="330" rx="3" fill="#e6eaf0"/><rect x="330" y="150" width="14" height="330" rx="7" fill="#aeb6c2"/><rect x="330" y="150" width="6" height="330" rx="3" fill="#e6eaf0"/>
    </g>
    <ellipse cx="265" cy="150" rx="110" ry="20" fill="#fdbc0a" opacity="0.9"/>
  <rect x="0" y="482" width="530" height="48" fill="#000917"/>
  <rect x="0" y="478" width="530" height="4" fill="#fdbc0a"/>
  <text x="26" y="514" font-family="Arial, sans-serif" font-size="26" font-weight="800" fill="#ffffff">Iron Rods</text>
  <text x="504" y="514" font-family="Arial, sans-serif" font-size="24" font-weight="700" fill="#ffdea3" text-anchor="end">छड़</text>
</svg>